<?xml version="1.0" encoding="utf-8"?>
<!-- Generator: Adobe Illustrator 16.0.3, SVG Export Plug-In . SVG Version: 6.00 Build 0)  -->
<!DOCTYPE svg PUBLIC "-//W3C//DTD SVG 1.1//EN" "http://www.w3.org/Graphics/SVG/1.1/DTD/svg11.dtd">
<svg version="1.1" id="Layer_1" xmlns="http://www.w3.org/2000/svg" xmlns:xlink="http://www.w3.org/1999/xlink" x="0px" y="0px"
	 width="63px" height="47.156px" viewBox="0 0 63 47.156" enable-background="new 0 0 63 47.156" xml:space="preserve">
<g>
	<path fill="#FFFFFF" d="M17,5.978c0,4,0,8,0,12c4-0.37,8-1.274,12-2.27c0,5.667,0,11.333,0,17c-6,1.494-12,2.781-18,2.369
		c0-9.668,0-19.334,0-29c-3.667-0.252-7.333-1.138-11-3c0,13.667,0,27.334,0,41c11.333,5.752,22.667,2.19,34-0.632
		c0-9.665,0-19.333,0-29c6-1.494,12-2.781,18-2.369c0,5.667,0,11.333,0,17c-4-0.273-8,0.205-12,1c0,4,0,8,0,12
		c7.666-1.521,15.334-1.893,23,2c0-13.666,0-27.333,0-41C47.666-4.706,32.333,4.56,17,5.978z"/>
	<path fill="#FFFFFF" d="M40,19.077c0,1.667,0,3.333,0,5c2-0.396,4-0.715,6-0.9c0-1.667,0-3.333,0-5C44,18.362,42,18.681,40,19.077z
		"/>
	<path fill="#FFFFFF" d="M23,23.078c-2,0.396-4,0.715-6,0.9c0,1.666,0,3.334,0,5c2-0.186,4-0.504,6-0.9
		C23,26.412,23,24.746,23,23.078z"/>
</g>
</svg>
